<svg xmlns="http://www.w3.org/2000/svg" xmlns:xlink="http://www.w3.org/1999/xlink" class="SvgSymbol-root SvgSymbol-small SvgSymbol-whoknows" width="6" height="14" viewBox="0 0 6 14"><path d="M4.000202,11.000227 C4.000202,11.553227 3.553202,12.000227 3.000202,12.000227 C2.448202,12.000227 2.000202,11.553227 2.000202,11.000227 C2.000202,10.448227 2.448202,10.000227 3.000202,10.000227 C3.553202,10.000227 4.000202,10.448227 4.000202,11.000227 Z M3.686202,8.493927 C3.686202,8.90814056 3.35041557,9.243927 2.936202,9.243927 C2.52198844,9.243927 2.186202,8.90814056 2.186202,8.493927 L2.186202,7.548927 C2.186202,7.30161071 2.30812628,7.07019301 2.51210668,6.93034543 C2.57672416,6.88604413 2.69378171,6.80364937 2.84545153,6.69319308 C3.0984711,6.50892701 3.35126036,6.31619847 3.58533919,6.12574777 C3.71344193,6.02152111 3.83227492,5.92089021 3.93988199,5.82512717 C4.05004053,5.7270935 4.14703222,5.63539679 4.22822974,5.55232334 C4.41360407,5.36221605 4.471202,5.24557386 4.471202,4.999927 C4.471202,4.54392251 4.36646174,4.28404449 4.01922993,3.90769351 C3.77512775,3.64234008 3.40669956,3.50695579 2.91884762,3.49985144 C2.48162036,3.50605814 2.12423768,3.65915182 1.79988034,3.98486839 C1.67721797,4.10540673 1.55526211,4.32628816 1.46420318,4.60949686 C1.33741525,5.00382882 0.914964104,5.22071611 0.520632143,5.09392817 C0.126300182,4.96714024 -0.0905871054,4.5446891 0.0362008275,4.15035714 C0.19580476,3.65396186 0.432176734,3.22585468 0.74271273,2.92075864 C1.33610415,2.32476462 2.06669718,2.01179709 2.9186661,2 C3.80976175,2.01243389 4.57134349,2.29228817 5.1224272,2.89134979 C5.72081171,3.53991329 5.971202,4.16117329 5.971202,4.999927 C5.971202,5.68173066 5.73941369,6.15112767 5.3015557,6.60016427 C5.19358309,6.71063239 5.07175978,6.82580511 4.93708087,6.94566026 C4.81194024,7.05702698 4.67643676,7.17177489 4.53201131,7.289282 C4.2750081,7.49838438 4.00163802,7.7068039 3.72849826,7.90572287 C3.71412263,7.91619218 3.70002,7.9264386 3.686202,7.93645572 L3.686202,8.493927 Z" fill-rule="nonzero"></path></svg>
